<?xml version="1.0" encoding="UTF-8" standalone="no"?>
<!-- Created with Inkscape (http://www.inkscape.org/) -->

<svg
   width="210mm"
   height="297mm"
   viewBox="0 0 210 297"
   version="1.1"
   id="svg1"
   sodipodi:docname="SoftwareArchitectTimes.svg"
   inkscape:version="1.3.2 (091e20e, 2023-11-25, custom)"
   xmlns:inkscape="http://www.inkscape.org/namespaces/inkscape"
   xmlns:sodipodi="http://sodipodi.sourceforge.net/DTD/sodipodi-0.dtd"
   xmlns="http://www.w3.org/2000/svg"
   xmlns:svg="http://www.w3.org/2000/svg">
  <sodipodi:namedview
     id="namedview1"
     pagecolor="#ffffff"
     bordercolor="#000000"
     borderopacity="0.25"
     inkscape:showpageshadow="2"
     inkscape:pageopacity="0.0"
     inkscape:pagecheckerboard="0"
     inkscape:deskcolor="#d1d1d1"
     inkscape:document-units="mm"
     inkscape:zoom="0.93103385"
     inkscape:cx="320.07429"
     inkscape:cy="640.68562"
     inkscape:window-width="1773"
     inkscape:window-height="1266"
     inkscape:window-x="880"
     inkscape:window-y="-1406"
     inkscape:window-maximized="0"
     inkscape:current-layer="layer1" />
  <defs
     id="defs1">
    <inkscape:perspective
       sodipodi:type="inkscape:persp3d"
       inkscape:vp_x="93.780154 : 181.74933 : 1"
       inkscape:vp_y="0 : 1000 : 0"
       inkscape:vp_z="210 : 148.5 : 1"
       inkscape:persp3d-origin="105 : 99 : 1"
       id="perspective84" />
    <rect
       x="-652.86211"
       y="318.51909"
       width="21.34131"
       height="16.779309"
       id="rect9" />
    <rect
       x="124.66235"
       y="153.81692"
       width="397.20319"
       height="254.339"
       id="rect8" />
  </defs>
  <g
     inkscape:label="Capa 1"
     inkscape:groupmode="layer"
     id="layer1">
    <path
       style="fill:#000000;stroke-width:0.264583"
       id="path1"
       d="m 89.243738,30.914266 c 0.785108,-1.665206 0.391506,-0.796833 1.174982,-2.607752 0,0 -0.06974,-0.0392 -0.06974,-0.0392 v 0 c -0.783339,1.810686 -0.389785,0.942398 -1.17484,2.6075 z" />
    <circle
       id="path7"
       style="fill:#000000;stroke:#000000;stroke-width:0.264583"
       cx="113.12786"
       cy="-27.831068"
       r="0.037852805" />
    <text
       xml:space="preserve"
       transform="scale(0.26458333)"
       id="text8"
       style="fill:#000000;white-space:pre;shape-inside:url(#rect8)" />
    <text
       xml:space="preserve"
       transform="scale(0.26458333)"
       id="text9"
       style="fill:#000000;white-space:pre;shape-inside:url(#rect9)" />
    <path
       style="fill:#000000;stroke-width:0.264583"
       id="path33"
       d="m 20.670904,7.6348012 c -0.36261,0.00265 -0.729077,-0.044862 -1.087833,0.00794 -2.757065,0.4057735 -4.92657,2.3957808 -6.657358,4.4407368 -0.508346,0.60062 -0.951033,1.253865 -1.42655,1.880798 -1.475691,2.231346 -2.6756979,4.512261 -1.7005056,7.232506 0.5554846,1.549496 1.3412076,2.339816 2.3386506,3.62664 1.387102,1.616783 3.008819,3.00515 4.488238,4.531192 0.461769,0.476322 1.631994,1.680369 1.813332,2.399129 0.168187,0.666635 0.04935,1.374164 0.07403,2.061244 -0.457847,3.098749 -1.78405,5.897155 -3.53116,8.472921 -0.935553,1.379286 -2.185267,3.137741 -3.799116,3.890634 -0.475676,0.221914 -1.042527,0.123255 -1.5637912,0.184881 -0.015931,-0.07604 -0.010488,-0.15997 -0.047789,-0.228122 C 9.2657498,45.577473 8.8582763,45.07482 8.5964262,44.49533 7.810901,42.756909 7.6298112,41.535709 7.1696436,39.702998 6.9948832,39.006977 6.8080127,38.314052 6.627197,37.619582 c 0,0 -0.1649127,-0.0809 -0.1649127,-0.0809 v 0 c 0.064487,2.019914 -0.006,2.004544 0.397469,4.157982 0.1991,1.062662 0.5280335,3.075528 1.4297427,3.933741 0.6977227,0.664064 1.6360653,1.017098 2.454098,1.525648 0.52251,-0.0901 1.102602,-0.0154 1.567529,-0.270309 1.317258,-0.722222 2.900306,-2.954099 3.631446,-4.041121 1.742254,-2.59029 3.130509,-5.376828 3.666346,-8.475382 -0.01771,-0.7077 0.123803,-1.437643 -0.05312,-2.123099 -0.19279,-0.746921 -1.481569,-2.00724 -1.964294,-2.493097 -1.506421,-1.516194 -3.129512,-2.917968 -4.534127,-4.535064 -0.988555,-1.265833 -1.771175,-2.054115 -2.336511,-3.574822 -1.0184161,-2.739453 0.166251,-4.910926 1.741058,-7.105963 0.482132,-0.618265 0.931324,-1.263692 1.446395,-1.854797 1.742679,-1.999927 3.977372,-4.0008685 6.747035,-4.2561112 0.379668,-0.034989 0.761167,0.045991 1.14175,0.068986 z" />
    <path
       style="fill:#000000;stroke-width:0.264583"
       id="path34"
       d="m 26.625118,29.435657 c -1.23642,0.562886 -2.382121,1.39703 -3.245666,2.455659 -0.678603,0.831906 -0.990285,1.502413 -1.504787,2.439231 -0.82434,1.796804 -1.400085,3.675589 -1.125127,5.674212 0.05897,0.428611 0.125505,0.868751 0.308702,1.2607 0.166656,0.356555 0.478997,0.624649 0.718495,0.936974 0.714456,0.385762 1.358073,0.950963 2.143369,1.157287 0.422914,0.111117 0.878767,-0.09829 1.286557,-0.256116 0.451401,-0.174707 0.863584,-0.445233 1.256371,-0.728081 1.593329,-1.147363 2.008775,-2.307484 2.747888,-4.047627 0.483323,-1.50716 0.848405,-3.056819 0.935009,-4.641816 0.03157,-0.577691 0.02458,-1.320646 -0.138504,-1.896168 -0.05997,-0.211632 -0.179168,-0.401796 -0.268753,-0.602697 -1.213258,-1.241893 -1.977494,-1.138275 -3.226663,-0.44414 -0.690197,0.530897 -0.995913,1.375905 -1.248355,2.178597 -0.03243,0.299062 -0.08759,0.490715 0.0056,0.783305 0.27743,0.871487 1.549912,1.369896 2.180652,1.735447 1.119883,0.490767 2.28958,0.35661 3.43236,0.0352 0.612476,-0.30389 1.359183,-0.543327 1.815119,-1.083519 -0.06889,-0.326043 -0.0081,-0.152103 -0.218694,-0.507658 0,0 -0.544976,-0.297135 -0.544976,-0.297135 v 0 c -0.328811,0.02622 -0.176461,0.0058 -0.457835,0.05513 -0.523187,0.429172 -0.966266,0.932219 -1.661583,1.100275 -1.093169,0.294534 -2.222016,0.433948 -3.28753,-0.04757 0.202202,0.122899 0.388477,0.276998 0.60661,0.368692 0.133689,0.0562 -0.238217,-0.166243 -0.348641,-0.260252 -0.433546,-0.369097 -0.654902,-0.762371 -0.533718,-1.339956 0.25187,-0.784175 0.530474,-1.605389 1.262576,-2.069153 0.289221,-0.168079 0.586108,-0.3438 0.91436,-0.426051 0.140047,-0.03509 0.457915,0.07654 0.42826,-0.06475 -0.05068,-0.241466 -0.386913,-0.311015 -0.546597,-0.499097 -0.104079,-0.122584 0.251788,0.2001 0.377684,0.300146 0.0781,0.184801 0.181251,0.360919 0.234305,0.554403 0.380196,1.386554 0.07667,3.435019 -0.27922,4.783085 -0.148392,0.562088 -0.370819,1.101973 -0.556231,1.65296 -0.240546,0.536049 -0.436721,1.094304 -0.721641,1.608146 -0.724212,1.306099 -1.827275,2.499259 -3.26608,3.025896 -0.383974,0.140544 -0.821416,0.07807 -1.208676,0.209286 -0.06032,0.02042 0.05515,0.114818 0.08272,0.172225 -0.275605,-0.308192 -0.633076,-0.559329 -0.826815,-0.924576 -0.199685,-0.37646 -0.264544,-0.815192 -0.320118,-1.237692 -0.256293,-1.94845 0.376471,-3.831029 1.162296,-5.578416 0.231056,-0.420818 0.43822,-0.855666 0.693169,-1.262452 0.975044,-1.555742 2.360185,-2.829703 4.087307,-3.488827 z" />
    <path
       style="fill:#000000;stroke-width:0.264583"
       id="path35"
       d="m 36.07114,37.720616 c 1.99608,-3.197532 3.289133,-6.784181 4.377296,-10.376278 0.349059,-1.473615 0.832117,-3.275179 -0.14197,-4.646182 -0.404035,-0.568669 -1.037685,-0.661748 -1.65762,-0.90684 -0.204325,0.116424 -0.432464,0.198544 -0.612971,0.349274 -1.192294,0.995601 -1.623838,2.874576 -1.960779,4.281333 -0.521928,2.17909 -0.64501,3.588214 -0.94456,5.842257 -0.782992,6.762242 -0.560602,13.577477 -0.384432,20.36581 0.09491,1.622033 0.0046,3.264948 0.272979,4.874908 0.02066,0.123894 0.147103,0.855112 0.304683,0.883571 0.244436,0.04415 0.496544,-0.01527 0.744816,-0.02289 -0.14324,-1.316159 -0.04274,-0.608811 -0.325671,-2.118473 0,0 -0.07164,-0.0356 -0.07164,-0.0356 v 0 c 0.008,1.353087 0.09363,0.740743 -0.178268,1.846344 0.201895,0.224324 0.394057,0.457811 0.605689,0.672978 0.02474,0.02516 -0.037,-0.06281 -0.04012,-0.09796 -0.01836,-0.206558 -0.01347,-0.414549 -0.02384,-0.621663 -0.08175,-1.629838 -0.254654,-3.252906 -0.305597,-4.884748 -0.308184,-6.808618 -0.55994,-13.655428 0.19512,-20.444885 0.310933,-2.458315 0.385001,-3.493265 0.889939,-5.857785 0.157308,-0.73664 0.3384,-1.469123 0.555546,-2.190394 0.264755,-0.879406 0.423394,-1.608856 1.156883,-2.169885 0.184962,-0.141473 0.427516,-0.184753 0.641273,-0.27713 7.94e-4,-0.06532 -0.05761,-0.222368 0.0021,-0.195958 0.435165,0.192354 0.727408,0.698802 0.83073,1.132173 0.293222,1.229859 -0.213923,2.556341 -0.4344,3.738391 -1.129777,3.56693 -2.331268,7.175731 -4.474205,10.283024 z" />
    <path
       style="fill:#000000;stroke-width:0.264583"
       id="path36"
       d="m 30.762786,45.345117 c 2.098641,-1.364446 4.085204,-2.886602 6.069589,-4.409313 0.695577,-0.546794 1.418752,-1.05197 2.172097,-1.514716 0.07606,-0.04672 0.845754,-0.50659 0.944499,-0.594217 0.123976,-0.110017 0.21182,-0.255 0.317731,-0.382503 0.147256,-0.58955 0.111042,-0.296437 0.117609,-0.878187 0,0 -0.06781,-0.04245 -0.06781,-0.04245 v 0 c -0.796099,0.08255 -0.393472,0.0217 -1.207228,0.186857 -1.317939,0.593614 -2.472213,1.511946 -3.619182,2.378197 -1.98859,1.522455 -3.960826,3.074794 -6.11333,4.364791 z" />
    <path
       style="fill:#000000;stroke-width:0.264583"
       id="path37"
       d="m 49.414411,10.899431 c -0.748475,5.541413 -1.140002,11.124142 -1.553073,16.698335 -0.158805,2.756305 -0.411207,5.518653 -0.355094,8.283229 0.01863,0.917276 0.07033,2.130351 0.376785,3.035755 0.108508,0.320577 0.313113,0.600112 0.46967,0.900165 1.141687,0.793652 1.476205,1.119497 3.254375,1.464773 0.371649,0.07216 0.747384,-0.129815 1.111543,-0.233349 1.024536,-0.291288 1.549178,-0.608036 2.298872,-1.320768 0.13148,-0.116581 0.262959,-0.233162 0.394439,-0.349742 0,0 -0.247822,-0.163809 -0.247822,-0.163809 v 0 c -0.227045,0.05331 -0.454089,0.106619 -0.681133,0.159927 -1.163471,0.240726 -0.758965,0.143431 -1.977774,0.455586 -0.370644,0.09493 -0.734838,0.217996 -1.110681,0.289626 -0.381984,0.0728 -0.908725,-0.155887 -1.157817,0.142719 -0.178136,0.213548 0.694481,0.55567 0.455962,0.698651 -0.273508,0.163954 -0.554069,-0.315846 -0.831104,-0.473771 -0.199935,-0.302337 -0.458351,-0.573283 -0.599807,-0.907007 -0.335159,-0.790702 -0.482852,-2.298835 -0.527511,-3.073644 -0.160311,-2.781257 0.06087,-5.574376 0.204846,-8.349482 0.381423,-5.543224 0.824532,-11.093255 1.756709,-16.575816 z" />
    <path
       style="fill:#000000;stroke-width:0.264583"
       id="path38"
       d="m 36.920175,30.613625 c 1.77242,0.153246 3.557259,0.218657 5.332074,0.05699 1.117608,-0.101801 1.86441,-0.251587 2.96328,-0.440092 1.375833,-0.350295 2.925643,-0.364718 4.169868,-1.12939 0.337076,-0.207161 1.028382,-0.850551 1.32443,-1.116145 0,0 -0.06681,-0.044 -0.06681,-0.044 v 0 c -2.090121,0.534982 -0.02537,0.03488 -2.253724,0.484537 -1.465939,0.295817 -2.904421,0.72639 -4.384542,0.956725 -1.147612,0.201581 -1.760744,0.332211 -2.931007,0.442648 -1.73509,0.16374 -3.470661,0.0995 -5.207185,0.0108 z" />
    <path
       style="fill:#000000;stroke-width:0.264583"
       id="path39"
       d="m 53.964853,28.911526 c -0.193271,2.363536 0.543623,4.630579 1.765313,6.632596 0.220175,0.36081 0.479261,0.696386 0.718891,1.044578 0.72971,0.919326 1.929725,2.509845 3.381121,2.159801 0.332052,-0.08008 0.178089,-0.65958 0.274381,-0.987298 0.110387,-0.375679 0.230404,-0.748461 0.345607,-1.12269 0.333245,-0.925042 0.532757,-1.883818 0.680598,-2.85274 0.03109,-0.203732 0.04958,-0.409435 0.08642,-0.612207 0.01693,-0.0932 0.156381,-0.226359 0.07463,-0.274219 -0.370668,-0.217003 -0.816748,-0.266213 -1.225121,-0.39932 0.422658,1.672701 1.168122,3.35574 2.327177,4.657834 0.246549,0.276976 0.499448,0.575278 0.832963,0.737362 0.735693,0.357539 1.547572,0.530407 2.321359,0.795612 0.286724,-0.20289 0.609812,-0.362307 0.860174,-0.608668 1.296405,-1.275689 1.814759,-3.406289 2.111338,-5.135761 0.153829,-0.781474 0.01683,-1.477354 -0.323538,-2.178177 0,0 -0.242408,-0.126326 -0.242408,-0.126326 v 0 c -0.535403,0.367528 -0.71383,0.931754 -0.83402,1.553779 -0.427797,1.667135 -0.84323,3.733324 -2.149057,4.968126 -0.232119,0.219493 -0.534442,0.350134 -0.801661,0.525201 0.173741,0.265779 0.836041,0.75592 0.521224,0.797338 -0.394457,0.05189 -0.65622,-0.45828 -0.934088,-0.743022 -0.993457,-1.018026 -1.736111,-2.517431 -2.198949,-3.852759 -0.08508,-0.245464 -0.107963,-0.508241 -0.161944,-0.76236 -0.460814,-0.305263 -0.87504,-0.696521 -1.382442,-0.915786 -0.09203,-0.03977 -0.03344,0.197696 -0.05078,0.296436 -0.03507,0.199636 -0.06921,0.399447 -0.106477,0.598686 -0.182165,0.973887 -0.36436,1.947598 -0.511624,2.927694 -0.10077,0.376261 -0.153663,0.768742 -0.302308,1.128784 -0.114054,0.27626 -0.565872,0.473739 -0.477131,0.75914 0.134646,0.433041 0.709837,0.573929 0.999993,0.922449 0.11318,0.13595 -0.320593,-0.157234 -0.456849,-0.27005 -0.340312,-0.281765 -1.016238,-1.094841 -1.265663,-1.382485 -0.257328,-0.349967 -0.537377,-0.684313 -0.77198,-1.049901 -1.358826,-2.117505 -1.906339,-4.124553 -1.917893,-6.626714 z" />
    <path
       style="fill:#000000;stroke-width:0.264583"
       id="path40"
       d="m 76.927193,30.038738 c -0.603755,-0.05775 -1.071734,-0.140121 -1.688716,-0.02307 -1.790041,0.339561 -3.071291,1.802866 -4.202168,3.110043 -0.2315,0.387649 -0.506894,0.752255 -0.694502,1.162946 -0.662623,1.450536 -0.551347,2.992941 0.19101,4.384064 0.131498,0.246415 0.308708,0.465561 0.463061,0.698341 0.72966,0.590701 1.278615,1.137783 2.44893,1.0725 0.357251,-0.01992 0.516972,-0.500005 0.727308,-0.789461 0.791009,-1.088555 1.240163,-2.413569 1.733801,-3.649864 0.43198,-1.145241 0.9895,-2.30818 1.126152,-3.540392 0.08085,-0.529336 0.233608,-1.600814 -1.456788,-0.307316 -0.286502,0.219231 0.07217,0.718436 0.132246,1.074155 0.19262,1.140545 0.268627,1.248434 0.616085,2.348045 0.433798,1.034031 0.955506,2.058588 1.720665,2.891181 0.103672,0.112808 0.199006,0.240803 0.330518,0.319405 0.586364,0.350454 1.206973,0.640133 1.810461,0.9602 0.287616,-0.294513 0.212754,-0.105911 0.05669,-0.606105 0,0 -0.193231,-0.128186 -0.193231,-0.128186 v 0 c -0.832284,-0.199892 -0.453845,-0.117136 -1.133536,-0.256288 0.386932,0.2433 0.754902,0.519755 1.160796,0.7299 0.125884,0.06518 -0.213532,-0.187113 -0.311076,-0.28997 -0.131619,-0.138789 -0.256214,-0.28439 -0.375451,-0.433951 -0.588188,-0.737766 -1.076018,-1.541936 -1.431068,-2.41868 -0.404056,-1.143455 -0.456409,-1.146736 -0.674696,-2.337943 -0.06446,-0.351735 0.05053,-0.763715 -0.145359,-1.062879 -0.397362,-0.606862 -1.015264,-1.037344 -1.550445,-1.526995 -0.06451,-0.05902 0.08281,0.402672 -0.02766,0.260845 -0.325575,1.195025 -0.631402,2.39495 -0.991217,3.58072 -0.461314,1.245875 -0.902848,2.519804 -1.700318,3.602468 -0.190619,0.258789 -0.663321,0.386094 -0.655238,0.707406 0.0087,0.347581 0.585375,0.449165 0.692653,0.779891 0.07101,0.218932 -0.378227,-0.262374 -0.567341,-0.393559 -0.161854,-0.226285 -0.347745,-0.437177 -0.485555,-0.678855 -0.745165,-1.30679 -0.849787,-2.86866 -0.245954,-4.256402 0.176847,-0.406435 0.447063,-0.765498 0.670597,-1.148247 0.295153,-0.354312 0.562874,-0.733404 0.885457,-1.062937 0.882213,-0.901224 1.952826,-1.755579 3.23075,-1.961343 0.692957,-0.111578 1.039529,-0.0041 1.698818,0.105518 z" />
    <path
       style="fill:#000000;stroke-width:0.264583"
       id="path41"
       d="m 81.422633,29.137795 c -0.02941,1.370475 -0.01669,2.735209 0.06561,4.103478 0.02516,0.418428 0.08272,0.836041 0.07712,1.255189 -0.0042,0.315854 -0.071,0.627764 -0.106506,0.941644 0.08042,1.196544 -0.07389,1.216684 1.958936,1.47605 0.150291,0.01918 0.03971,-0.300805 0.04626,-0.452176 0.009,-0.208127 2.54e-4,-0.416645 2.64e-4,-0.624967 0.01185,-0.256506 0.02368,-0.513011 0.03554,-0.769517 0.292399,-1.566079 0.816859,-3.162744 1.871433,-4.38504 0.767045,-0.567155 1.50377,-0.329901 2.27254,0.06015 -1.217623,-0.769398 -1.272352,-0.763289 -0.06817,-0.150482 0,0 -0.385998,-0.310652 -0.385998,-0.310652 v 0 c 0.98865,0.482949 0.673386,0.349578 -0.843849,-0.585269 -0.839383,-0.479791 -1.683864,-0.568066 -2.484607,0.07825 -1.0492,1.268113 -1.666875,2.819834 -2.058379,4.408485 -0.01056,0.07469 -0.223316,1.726274 -0.202554,1.744784 0.524449,0.467548 1.18519,0.75493 1.777788,1.132395 -0.04152,-0.05097 -0.103978,-0.09046 -0.124542,-0.152897 -0.06877,-0.208785 -0.09213,-0.429874 -0.138197,-0.644813 -0.101902,-0.38121 -0.238279,-0.754838 -0.3057,-1.14363 -0.07269,-0.41914 -0.08054,-0.847019 -0.113064,-1.27117 -0.106585,-1.390107 -0.25586,-2.778088 -0.222348,-4.173939 z" />
    <path
       style="fill:#000000;stroke-width:0.264583"
       id="path42"
       d="m 91.034197,33.209685 c 1.910413,-0.09454 2.69604,-0.69858 3.689551,-2.269046 0.360778,-0.830495 0.213159,-1.391422 -0.597927,-1.848331 -1.846648,-1.040273 -1.199443,-0.908886 -2.529305,-0.976519 -0.2501,0.06189 -0.518322,0.07356 -0.7503,0.185653 -0.285981,0.138186 -0.538158,0.342283 -0.776571,0.552135 -1.267701,1.11584 -1.820463,2.680851 -2.339557,4.233291 -0.0706,0.511818 -0.17354,1.020209 -0.211794,1.535456 -0.136522,1.838857 -0.02835,4.155697 0.770605,5.855317 0.154778,0.329258 0.390123,0.614227 0.585187,0.921342 0.853397,0.813263 2.569831,2.105681 3.736744,1.768293 0.151903,-0.04392 0.231053,-0.215937 0.346581,-0.323906 0,0 -0.458105,-0.327774 -0.458105,-0.327774 v 0 c -0.355526,-0.07369 -0.709851,-0.153434 -1.066575,-0.221075 -0.2921,-0.05539 -0.676304,-0.364913 -0.879557,-0.147939 -0.05404,0.05769 1.906309,1.547889 -0.242491,-0.11952 -0.213164,-0.301514 -0.468249,-0.577395 -0.639493,-0.904545 -0.868812,-1.65981 -1.022686,-4.00232 -0.886682,-5.832654 0.03754,-0.505217 0.142851,-1.003097 0.214278,-1.504643 0.548987,-1.67762 1.253347,-3.874157 3.026461,-4.667748 0.223244,-0.09992 0.477935,-0.104238 0.716904,-0.156358 1.076661,0.105466 0.713549,0.183436 0.0092,-0.409305 -0.131886,-0.11099 0.306044,0.165013 0.435568,0.278752 0.449678,0.394872 0.481066,0.834122 0.25272,1.362014 -0.933114,1.48504 -1.817045,2.102985 -3.616648,2.13165 z" />
    <path
       style="fill:#000000;stroke-width:0.264583"
       id="path43"
       d="m 106.14109,43.063712 c 1.25885,-5.661461 2.68816,-11.283526 4.25277,-16.86772 0.85108,-2.89514 1.89685,-5.733714 3.10131,-8.500256 0.27138,-0.623325 0.52422,-1.25837 0.86165,-1.848559 0.18744,-0.327863 0.80758,-0.525473 0.70313,-0.888408 -0.0882,-0.306574 -0.63801,0.0041 -0.95702,0.0061 0.20446,0.647415 0.44816,1.283726 0.6134,1.942246 1.09412,4.360221 1.49248,8.844681 2.21055,13.270398 0.14994,0.924107 0.34129,1.841015 0.51193,2.761522 0.35945,1.914496 0.88877,3.788619 1.35049,5.679244 0,0 0.13335,0.06568 0.13335,0.06568 v 0 c -0.0269,-1.708324 -0.003,-3.420319 -0.21326,-5.120195 -0.0879,-0.879877 -0.15348,-1.762268 -0.26368,-2.639632 -0.0497,-0.395618 -0.93087,-6.280666 -0.9706,-6.535825 -0.27098,-1.740526 -0.77993,-4.939675 -1.15357,-6.718521 -0.13898,-0.661645 -0.33164,-1.310864 -0.49746,-1.966297 -0.73356,-0.533593 -1.31693,-1.396263 -2.20068,-1.60078 -0.37927,-0.08777 -0.51714,0.589082 -0.71018,0.927144 -0.33826,0.592387 -0.60096,1.225277 -0.87548,1.849766 -1.21692,2.76837 -2.26529,5.614831 -3.10572,8.519972 -1.58963,5.563903 -2.97938,11.180029 -4.44076,16.778432 z" />
    <path
       style="fill:#000000;stroke-width:0.264583"
       id="path44"
       d="m 105.39746,37.63568 c 0.34011,-0.09243 0.68649,-0.164307 1.02033,-0.277284 0.94907,-0.321164 1.81575,-0.732676 2.73443,-1.128604 1.21337,-0.522938 2.41675,-1.042299 3.60636,-1.617768 0.53514,-0.322392 1.83441,-1.051311 2.26003,-1.526101 0.23575,-0.262977 0.32341,-0.627965 0.48511,-0.941948 0,0 -0.58881,-0.373571 -0.58881,-0.373571 v 0 c -0.44929,0.131085 -0.92478,0.193151 -1.34785,0.393261 -0.81895,0.387342 -1.41242,1.166119 -2.27869,1.481177 -1.15236,0.597935 -2.32526,1.139341 -3.50987,1.670976 -0.51626,0.231685 -2.12888,0.944258 -2.68527,1.130538 -0.32767,0.109705 -0.67117,0.164719 -1.00676,0.247076 z" />
    <path
       style="fill:#000000;stroke-width:0.264583"
       id="path45"
       d="m 122.40746,22.919621 c -0.2907,2.358825 0.01,4.750234 0.24347,7.102536 0.091,1.728388 0.40215,3.45041 0.42855,5.182269 -0.0683,0.995542 -0.5374,1.170562 1.84086,1.127622 0.20877,-0.0038 -0.099,-0.40572 -0.14844,-0.608581 -0.36856,-1.556493 -0.42022,-3.13654 0.173,-4.648144 0.13241,-0.337381 0.31184,-0.654357 0.46775,-0.981533 1.03907,-1.779588 2.25147,-2.979425 4.09054,-3.891953 0.4867,-0.192063 0.95893,-0.303824 1.47398,-0.183285 0.0935,0.02188 0.18223,0.06073 0.27301,0.09206 0.0414,0.01429 0.15903,0.07054 0.12357,0.04481 -0.24047,-0.174517 -0.49475,-0.329152 -0.74213,-0.493728 0,0 0.60034,0.234652 0.60034,0.234652 v 0 c -1.25878,-0.836024 -1.88821,-1.426438 -3.3949,-0.788612 -0.59244,0.311842 -0.89941,0.44294 -1.44352,0.862736 -1.10161,0.849934 -2.01111,1.9422 -2.70308,3.142868 -0.17213,0.329915 -0.37059,0.647383 -0.5164,0.989748 -0.65542,1.538944 -0.72003,3.040264 -0.39109,4.658919 0.0358,0.198408 -0.0429,0.46101 0.10756,0.595222 2.90743,2.593528 2.17623,1.862492 1.90847,0.701863 -0.30958,-1.74076 -0.35693,-3.5213 -0.60492,-5.270738 -0.25817,-2.365777 -0.72381,-4.759305 -0.40271,-7.140708 z" />
    <path
       style="fill:#000000;stroke-width:0.264583"
       id="path46"
       d="m 136.27145,26.866093 c -1.21451,0.582462 -2.39824,1.333727 -3.18644,2.45419 -0.17832,0.253487 -0.31843,0.531797 -0.47765,0.797695 -0.58629,1.302912 -1.13509,2.763248 -0.87482,4.219469 0.0413,0.230881 0.13017,0.450652 0.19526,0.675979 0.1071,0.193916 0.19575,0.399238 0.3213,0.581742 0.73969,1.075179 2.25928,1.855518 3.36187,2.323613 0.21897,0.09296 0.47341,0.04737 0.71012,0.07106 0.25458,-0.05213 0.52828,-0.04647 0.76375,-0.15639 0.26471,-0.123563 0.4709,-0.34603 0.70023,-0.526986 0.78953,-0.62298 1.09654,-0.918996 1.58075,-1.788089 0,0 -0.0676,-0.04276 -0.0676,-0.04276 v 0 c -0.27537,0.0919 -0.55539,0.170871 -0.82609,0.275701 -1.16009,0.44925 -2.22507,1.166186 -3.50835,1.229133 -0.2109,-0.02627 -0.72087,-0.272193 -0.6327,-0.07882 0.13965,0.306274 0.57103,0.357084 0.84727,0.549426 0.17094,0.11902 -0.36142,-0.208449 -0.53109,-0.329271 -0.54051,-0.384908 -0.99155,-0.844609 -1.2975,-1.438503 -0.0774,-0.219702 -0.17841,-0.432475 -0.23228,-0.659109 -0.34025,-1.431567 0.21268,-2.868019 0.77438,-4.162705 0.15253,-0.260562 0.28405,-0.534612 0.45757,-0.781685 0.77931,-1.109612 1.99898,-1.806996 3.20951,-2.348111 z" />
    <path
       style="fill:#000000;stroke-width:0.264583"
       id="path47"
       d="m 141.03895,9.0454931 c -0.17256,4.8865099 -0.15599,9.7771349 -0.19487,14.6659129 0.006,3.864008 -0.0841,7.735976 0.14947,11.595443 0.007,0.819362 0.21984,1.343305 0.6899,1.976691 0.0658,0.0862 0.13149,0.1724 0.19724,0.258601 0,0 0.51835,0.250217 0.51835,0.250217 v 0 c 0.0394,-0.03435 0.0788,-0.06871 0.11822,-0.103058 0.45747,-0.396248 0.0571,-1.110853 0.0385,-1.603317 -0.43339,-3.893899 -0.45058,-7.815463 -0.44693,-11.729314 0.0135,-4.886942 0.0369,-9.775793 0.19341,-14.6604692 z" />
    <path
       style="fill:#000000;stroke-width:0.264583"
       id="path48"
       d="m 139.26033,36.243892 c 0.65775,-2.051166 1.7557,-3.901845 2.89335,-5.715122 0.59193,-0.86478 1.13692,-1.766527 1.80867,-2.574213 0.14663,-0.176294 0.62375,-0.736092 0.89957,-0.833189 0.13862,-0.0488 0.29381,0.0079 0.44071,0.01185 0.14366,0.07827 0.58684,0.28457 0.43098,0.234823 -0.30462,-0.09723 -0.57033,-0.452557 -0.88143,-0.378603 -0.20062,0.04769 0.25635,0.324683 0.36112,0.50229 0.40817,0.691893 0.54537,1.485506 0.7258,2.256062 0.13326,1.146961 0.27954,2.291578 0.3957,3.440446 0.0404,0.399849 0.10519,1.296884 0.22484,1.714617 0.07,0.24421 0.19472,0.469265 0.29208,0.703897 0.13565,0.202351 0.2713,0.404701 0.40696,0.607052 0,0 0.64493,0.310862 0.64493,0.310862 v 0 c 0.0675,-0.101042 0.13504,-0.202084 0.20255,-0.303123 0.0342,-0.16827 0.0971,-0.333187 0.1026,-0.504806 0.007,-0.206852 -0.15793,-1.580095 -0.16972,-1.683338 -0.13499,-1.181507 -0.24519,-2.369918 -0.52316,-3.529229 -0.54012,-2.124607 -1.10924,-3.494622 -3.46041,-4.263089 -0.15603,0.02633 -0.32594,0.0095 -0.46809,0.079 -0.27506,0.134508 -0.71484,0.691743 -0.87405,0.891784 -0.65612,0.824383 -1.26919,1.686284 -1.84253,2.569733 -1.14703,1.81923 -2.23717,3.68236 -2.96032,5.717699 z" />
    <path
       style="fill:#000000;stroke-width:0.264583"
       id="path49"
       d="m 151.29753,26.844582 c -0.18451,3.199342 -0.41762,6.395384 -0.57904,9.596218 0.0189,1.042546 -0.28651,2.122014 0.10608,3.132788 0.0963,0.247918 0.27107,0.457677 0.4066,0.686512 0,0 0.51839,0.266031 0.51839,0.266031 v 0 c 0.14464,-0.08514 0.33337,-0.121034 0.43392,-0.255418 0.59718,-0.798113 0.0947,-2.04742 0.29183,-2.926567 0.0776,-3.268943 0.19154,-6.539386 0.17223,-9.808969 z" />
    <path
       style="fill:#000000;stroke-width:0.264583"
       id="path50"
       d="m 158.83057,11.282079 c -0.0715,4.093552 -0.0106,8.191526 -0.004,12.286643 0.0413,4.17587 -0.18076,8.360776 0.0165,12.53406 0.26711,1.419087 1.01753,2.561434 2.28394,3.278788 2.45321,1.38961 1.75078,1.128456 3.45286,1.59322 0.97185,0.01484 0.76004,0.27368 0.85174,-0.530431 0,0 -0.065,-0.04665 -0.065,-0.04665 v 0 c -1.70663,-0.555297 -0.92264,-0.376632 -2.33272,-0.614328 -0.29707,-0.09148 -0.82013,-0.577038 -0.8912,-0.274439 -0.0768,0.326929 0.8081,0.253407 0.81729,0.589108 0.009,0.321161 -0.56269,-0.315572 -0.81524,-0.514171 -0.8733,-0.686757 -1.37324,-1.569558 -1.62903,-2.642536 -0.3496,-4.20298 -0.0971,-8.430898 -0.25421,-12.642138 -0.0237,-4.11711 -0.0172,-8.23654 -0.12586,-12.351988 z" />
    <path
       style="fill:#000000;stroke-width:0.264583"
       id="path51"
       d="m 155.5903,26.694921 c 1.87413,0.802333 3.90242,1.09171 5.90096,1.405681 0.60669,0.0089 1.86039,0.438957 2.41277,0.158205 0.0921,-0.04683 0.14605,-0.146275 0.21907,-0.219414 0,0 -0.064,-0.04806 -0.064,-0.04806 v 0 c -0.79306,-0.314692 -1.18315,-0.503015 -1.98176,-0.70676 -0.68876,-0.17572 -1.41008,-0.199895 -2.10732,-0.325048 -1.93858,-0.291748 -3.91326,-0.571345 -5.73204,-1.337374 z" />
    <path
       style="fill:#000000;stroke-width:0.264583"
       id="path52"
       d="m 171.87272,30.764588 c 0.53583,-0.461013 1.02069,-0.975455 1.49177,-1.501079 0.22447,-0.250463 0.51903,-0.552424 0.66724,-0.866386 0.0579,-0.122738 0.072,-0.261713 0.10807,-0.39257 -0.0972,-1.090338 -1.74159,-2.106422 -2.71964,-1.761183 -0.46203,0.16309 -0.93343,0.602898 -1.29556,0.894828 -0.9454,0.975432 -1.82879,2.050228 -2.3264,3.331787 -0.36705,0.945303 -0.45232,1.553221 -0.66513,2.551758 -0.22614,1.5503 -0.63932,3.374761 0.13196,4.858131 0.39393,0.757624 0.75191,0.888627 1.4218,1.35994 0.32905,0.06426 3.13041,2.248244 4.10166,1.100907 0.1146,-0.135368 0.10545,-0.338685 0.15818,-0.508026 0,0 -0.12954,-0.08939 -0.12954,-0.08939 v 0 c -1.44203,-0.239485 -0.79405,-0.145571 -2.19624,-0.326379 -0.29282,-0.03776 -0.84848,-0.405889 -0.87861,-0.112183 -0.036,0.351234 0.54769,0.445735 0.82154,0.668604 -0.64682,-0.400817 -1.12166,-0.591314 -1.54078,-1.270986 -0.18215,-0.295389 -0.27698,-0.638961 -0.36848,-0.973717 -0.37754,-1.381271 -0.15066,-2.471762 0.0642,-3.857438 0.18997,-0.930314 0.28947,-1.634892 0.63431,-2.517475 0.48924,-1.252152 1.3851,-2.299743 2.31177,-3.246972 0.38962,-0.302581 0.75013,-0.666663 1.25645,-0.774944 0.15327,-0.03278 0.58328,0.144891 0.46866,0.03799 -0.35895,-0.334764 -0.82296,-0.53717 -1.25455,-0.770924 -0.0854,-0.04627 0.15868,0.120441 0.20804,0.204123 0.0484,0.082 0.0499,0.183735 0.0749,0.275601 -0.0201,0.11739 -0.0211,0.239739 -0.0604,0.352171 -0.31545,0.902406 -1.4349,1.671661 -2.10043,2.312075 z" />
    <path
       style="fill:#000000;stroke-width:0.264583"
       id="path53"
       d="m 181.97868,24.627585 c -1.65394,1.046639 -2.89026,2.625435 -3.79962,4.343366 -0.21776,0.411364 -0.39372,0.843521 -0.59058,1.265283 -0.49348,1.219927 -0.84397,2.487932 -1.0431,3.788455 -0.1272,0.830791 -0.20786,1.313817 -2.6e-4,2.131972 0.0741,0.292336 0.22879,0.558102 0.34319,0.837153 0.15854,0.21649 0.28862,0.45703 0.47563,0.649464 0.65774,0.676828 2.97613,1.76829 3.13662,1.842172 0.34445,0.158571 1.23318,0.234773 1.59747,0.127614 0.28837,-0.08483 0.52656,-0.290084 0.78983,-0.435123 0.87391,-0.940596 0.57943,-0.386114 0.85774,-1.676847 0,0 -0.2076,-0.128693 -0.2076,-0.128693 v 0 c -1.58523,0.415136 -0.84313,0.157596 -2.23516,0.746611 -0.75322,0.222925 -0.9115,0.362183 -1.67174,0.267899 -0.25763,-0.03195 -0.8838,-0.415613 -0.75525,-0.190077 0.20708,0.363289 0.69826,0.460359 1.04366,0.696058 0.45099,0.30775 -1.90024,-1.175599 -1.23233,-1.079031 -0.14171,-0.271841 -0.32688,-0.525127 -0.42512,-0.81552 -0.27227,-0.804895 -0.19716,-1.267317 -0.0813,-2.102639 0.17884,-1.289507 0.52059,-2.548345 1.00298,-3.757099 0.1933,-0.416163 0.36316,-0.844045 0.57992,-1.248489 0.90635,-1.691164 2.17739,-3.224575 3.84921,-4.191762 z" />
    <path
       style="fill:#000000;stroke-width:0.264583"
       id="path54"
       d="m 193.82036,3.1577878 c -0.48212,4.1571951 -0.8562,8.3280752 -1.19719,12.4992932 -0.56633,6.169973 -0.84917,12.365074 -0.92581,18.559671 0.0202,1.455693 0.017,2.925601 0.30723,4.359386 0.0827,0.40853 0.17366,0.787977 0.41754,1.13147 0.0857,0.120674 0.20706,0.211526 0.31058,0.317288 0.58619,0.338437 1.60946,1.228529 2.54381,1.347224 0.10169,0.01291 0.22082,0.06368 0.30741,0.0088 0.12974,-0.08222 0.15918,-0.266743 0.26902,-0.374105 0.58244,-0.424148 0.31818,-0.192545 0.79791,-0.688901 -0.0115,-0.176427 -0.0229,-0.352851 -0.0344,-0.529278 0,0 -0.24309,-0.153379 -0.24309,-0.153379 v 0 c -0.25186,0.008 -0.50372,0.01603 -0.75558,0.02405 -0.17381,0.08106 -0.3477,0.16193 -0.52142,0.243178 -0.17433,0.08153 -0.33382,0.208394 -0.52273,0.245161 -0.96415,0.187661 -2.90601,-1.097222 0.2001,0.710295 -0.30695,-0.240697 -0.42527,-0.282578 -0.60867,-0.669388 -0.2286,-0.482135 -0.33444,-1.159841 -0.40032,-1.662613 -0.17408,-1.328594 -0.16601,-1.959784 -0.22821,-3.370987 -0.018,-6.235983 0.12055,-12.474444 0.63756,-18.691967 0.3311,-4.227449 0.53477,-8.4616025 0.82111,-12.6917354 z" />
    <path
       style="fill:#000000;stroke-width:0.264583"
       id="path55"
       d="m 188.4968,27.360237 c 2.61898,-0.43782 5.2182,-1.008195 7.8106,-1.584097 0.73068,-0.172981 1.45939,-0.353263 2.18976,-0.527422 0.32974,-0.07863 0.67994,-0.124253 0.97177,-0.301022 -0.48357,-0.265449 -0.96714,-0.530899 -1.4507,-0.796348 0,0 0.76522,0.498151 0.76522,0.498151 v 0 c -0.38529,-0.320741 -0.77059,-0.641482 -1.15588,-0.962223 -1.07468,0.09853 -2.07701,0.665069 -3.14286,0.82799 -2.51488,0.627568 -5.05113,1.180396 -7.59298,1.685888 z" />
    <path
       style="opacity:1;fill:#000000;stroke:#000000;stroke-width:0.264999;stroke-dasharray:none;stroke-opacity:1;paint-order:stroke fill markers"
       id="path109"
       d="m 83.790262,55.833583 c 5.05976,-1.228537 10.253705,-1.802966 15.419271,-2.386816 3.365647,-0.360093 6.741197,-0.64679 10.129057,-0.588706 1.4886,0.02553 1.99467,0.08593 3.46087,0.198908 1.30671,0.138189 2.60522,0.339254 3.90346,0.539168 0,0 -3.11549,-2.333977 -3.11549,-2.333977 v 0 c -1.2885,-0.181483 -2.57716,-0.365768 -3.87379,-0.48116 -1.51816,-0.101132 -1.91338,-0.151183 -3.45383,-0.155467 -3.36422,-0.0094 -6.71111,0.331764 -10.051945,0.692489 -5.235835,0.612851 -10.488711,1.19172 -15.653742,2.270813 z" />
  </g>
</svg>
